# xmcd
# 
# Track frame offsets:
#     150
#     18901
#     31119
#     47773
#     61783
#     75860
#     88097
#     102354
#     122562
#     137837
#     153003
#     168471
#     187430
#     204576
#     216947
#     228298
# 
# Disc length: 3181
# 
# Revision: 0
# Processed by: cddbd v1.5.2PL0 Copyright (c) Steve Scherf et al.
# Submitted via: fre:ac v1.1beta1pre4
# 
DISCID=cc0c6b10
DTITLE=Aubrie Sellers - New City Blues
DYEAR=2016
DGENRE=Country
TTITLE0=Light of Day
TTITLE1=Sit Here and Cry
TTITLE2=Liar Liar
TTITLE3=Paper Doll
TTITLE4=Losing Ground
TTITLE5=Magazines
TTITLE6=Dreaming in the Day
TTITLE7=Humming Song
TTITLE8=Just to Be With You
TTITLE9=People Talking
TTITLE10=Something Special
TTITLE11=Loveless Rolling Stone
TTITLE12=Like the Rain
TTITLE13=Living Is Killing Me
TTITLE14=In My Room
TTITLE15=The Way I Feel Inside
EXTD=
EXTT0=
EXTT1=
EXTT2=
EXTT3=
EXTT4=
EXTT5=
EXTT6=
EXTT7=
EXTT8=
EXTT9=
EXTT10=
EXTT11=
EXTT12=
EXTT13=
EXTT14=
EXTT15=
PLAYORDER=
